<?xml version="1.0" standalone="no"?>
<!DOCTYPE svg PUBLIC "-//W3C//DTD SVG 20010904//EN"
 "http://www.w3.org/TR/2001/REC-SVG-20010904/DTD/svg10.dtd">
<svg version="1.0" xmlns="http://www.w3.org/2000/svg"
 width="273.000000pt" height="273.000000pt" viewBox="0 0 273.000000 273.000000"
 preserveAspectRatio="xMidYMid meet">

<g transform="translate(0.000000,273.000000) scale(0.100000,-0.100000)"
fill="#000000" stroke="none">
<path d="M1886 2575 c9 -13 13 -29 9 -35 -3 -5 -1 -10 5 -10 6 0 8 -10 5 -23
-5 -20 3 -29 67 -67 141 -83 283 -215 391 -361 54 -74 157 -264 157 -291 0
-10 2 -10 8 0 5 7 23 16 40 21 29 9 33 7 38 -15 4 -14 9 -23 12 -20 5 6 -4 31
-51 141 -120 284 -355 529 -620 649 -75 35 -77 35 -61 11z"/>
<path d="M1195 2580 c-171 -27 -394 -120 -526 -220 -347 -262 -530 -687 -480
-1117 57 -491 365 -875 822 -1027 140 -47 240 -60 412 -53 307 11 566 125 787
347 109 109 171 198 240 342 149 316 157 664 21 993 -151 367 -459 628 -843
716 -106 24 -334 34 -433 19z m636 -566 c45 -23 73 -71 77 -133 4 -66 -18
-109 -70 -141 -36 -22 -116 -27 -148 -10 -19 10 -19 11 1 31 27 27 16 36 -17
14 -27 -18 -28 -17 -50 9 -65 75 -19 216 79 245 37 11 90 5 128 -15z m-261
-149 c0 -14 7 -42 15 -62 24 -57 1 -96 -117 -193 -54 -45 -104 -80 -111 -77
-28 11 -418 331 -425 348 -2 5 141 9 317 9 l321 0 0 -25z m-560 -87 c36 -30
102 -85 148 -121 l82 -66 -42 -35 c-24 -19 -98 -80 -165 -135 -67 -56 -125
-101 -128 -101 -3 0 -5 125 -5 277 l0 276 23 -19 c12 -11 51 -45 87 -76z m674
-72 c40 -18 111 -19 149 -2 16 8 17 -5 17 -188 0 -108 -3 -196 -6 -196 -8 0
-168 128 -266 213 l-69 59 63 68 c35 38 65 67 68 66 3 -1 23 -10 44 -20z
m-368 -176 l54 -40 40 36 c32 29 43 34 54 25 10 -9 16 -9 21 -1 5 8 14 6 30
-4 41 -27 300 -238 303 -247 2 -5 -191 -9 -449 -9 l-454 0 25 24 c29 28 313
256 319 256 2 0 28 -18 57 -40z m624 -540 l0 -50 34 17 c32 15 37 15 60 -1 31
-20 38 -44 34 -119 -4 -83 -22 -76 -26 10 -2 62 -6 74 -24 84 -15 8 -27 8 -44
0 -22 -10 -24 -17 -24 -81 0 -52 -3 -70 -14 -70 -10 0 -14 30 -19 127 -3 71
-3 131 0 136 11 18 23 -8 23 -53z m-846 35 c5 -14 -17 -45 -33 -45 -15 0 -33
30 -27 45 7 19 52 20 60 0z m579 1 c7 -18 -1 -26 -25 -26 -11 0 -18 7 -18 20
0 23 35 28 43 6z m-1035 -56 c18 -33 37 -62 41 -64 4 -3 24 24 45 60 33 56 42
64 67 64 l30 0 -3 -127 -3 -128 -25 0 c-24 0 -25 3 -30 68 l-5 69 -30 -51
c-33 -57 -48 -63 -70 -26 -8 14 -23 37 -32 53 l-18 27 -5 -70 c-5 -63 -7 -70
-27 -73 -23 -3 -23 -3 -23 127 l0 131 28 0 c23 0 32 -9 60 -60z m532 -65 l0
-125 -25 0 -25 0 0 125 0 125 25 0 25 0 0 -125z m80 0 c0 -118 -1 -125 -20
-125 -19 0 -20 7 -20 125 0 118 1 125 20 125 19 0 20 -7 20 -125z m900 85 c0
-27 3 -30 31 -30 38 0 35 -24 -5 -28 -26 -3 -27 -5 -24 -65 3 -60 4 -62 31
-65 36 -4 29 -28 -7 -25 -46 3 -56 19 -56 90 0 47 -4 65 -15 69 -8 4 -15 10
-15 15 0 5 7 9 15 9 10 0 15 10 15 30 0 20 5 30 15 30 10 0 15 -10 15 -30z
m-1165 -45 c22 -21 25 -33 25 -100 0 -68 -2 -75 -19 -75 -11 0 -23 4 -26 10
-4 6 -13 5 -25 -2 -26 -17 -71 0 -87 32 -17 35 3 63 56 74 30 7 41 14 38 25
-3 16 -10 17 -59 5 -35 -8 -39 17 -6 40 33 23 75 20 103 -9z m602 1 c43 -37
19 -48 -29 -14 -14 10 -22 10 -35 2 -28 -18 -21 -37 17 -47 19 -5 43 -16 53
-24 39 -36 5 -93 -55 -93 -27 0 -68 30 -68 50 0 16 27 12 34 -6 9 -24 70 -15
74 12 3 18 -5 23 -43 33 -33 8 -49 18 -57 37 -11 24 -9 29 15 50 35 30 59 30
94 0z m236 10 c24 -13 27 -13 27 0 0 9 6 14 13 11 9 -3 12 -35 12 -116 0 -106
-1 -114 -24 -132 -32 -26 -95 -25 -121 1 -30 30 -14 44 19 19 41 -30 101 -5
101 42 0 16 -3 18 -19 9 -58 -30 -119 1 -128 66 -7 51 9 81 50 99 40 18 37 18
70 1z m-733 -86 c0 -89 0 -90 -25 -90 -25 0 -25 1 -25 90 0 89 0 90 25 90 25
0 25 -1 25 -90z m220 78 c0 -9 3 -9 12 0 18 18 82 15 101 -5 21 -24 27 -168 7
-168 -9 0 -14 13 -15 35 -3 100 -5 109 -26 121 -16 8 -28 8 -45 0 -22 -10 -24
-17 -24 -81 0 -56 -3 -70 -15 -70 -12 0 -15 17 -15 90 0 53 4 90 10 90 6 0 10
-5 10 -12z m360 -78 c0 -73 -3 -90 -15 -90 -12 0 -15 17 -15 90 0 73 3 90 15
90 12 0 15 -17 15 -90z"/>
<path d="M1702 1963 c-18 -7 -42 -57 -42 -87 0 -38 55 -96 92 -96 42 0 98 57
98 100 0 47 -47 90 -97 89 -21 0 -44 -3 -51 -6z m116 -55 c-3 -7 -13 -17 -24
-22 -12 -5 -25 -18 -30 -30 -5 -11 -14 -21 -20 -23 -15 -5 -44 24 -44 43 0 20
41 35 59 20 11 -8 13 -8 8 1 -8 12 7 21 36 22 11 1 17 -4 15 -11z"/>
<path d="M904 839 c-3 -6 -1 -16 5 -22 13 -13 42 0 49 21 5 15 -44 16 -54 1z"/>
<path d="M1752 924 c-33 -23 -31 -88 3 -110 67 -44 127 53 69 111 -20 19 -44
19 -72 -1z"/>
<path d="M2520 2070 c6 -11 13 -20 16 -20 2 0 0 9 -6 20 -6 11 -13 20 -16 20
-2 0 0 -9 6 -20z"/>
<path d="M2581 1956 c97 -208 135 -395 126 -631 -21 -579 -377 -1064 -912
-1243 -128 -43 -261 -63 -417 -63 -228 1 -418 47 -627 153 -122 61 -120 44 2
-22 84 -46 246 -101 367 -126 117 -25 372 -25 493 -1 559 112 984 536 1094
1094 26 132 23 377 -5 510 -26 120 -71 251 -118 346 -48 95 -50 84 -3 -17z"/>
<path d="M342 654 c-18 -12 -20 -19 -12 -35 6 -10 7 -19 3 -18 -23 4 -21 -5 9
-48 50 -74 175 -199 263 -265 92 -69 286 -166 395 -198 114 -34 233 -50 366
-50 l120 0 -5 43 -6 42 -50 2 c-296 14 -501 76 -715 214 -90 58 -220 178 -306
282 -38 45 -40 46 -62 31z"/>
<path d="M303 631 c0 -11 5 -18 9 -15 4 3 5 11 1 19 -7 21 -12 19 -10 -4z"/>
</g>
</svg>
